# xmcd CD database file
#
# Track frame offsets:
#	150
#	16098
#	27863
#	49678
#	63071
#	76935
#	97801
#	118033
#	131948
#	152371
#	167991
#	182823
#	205848
#	219413
#	239593
#	255944
#	270786
#	278743
#	297363
#	307265
#	321956
#	333152
#
# Disc length: 4680 seconds
#
# Revision: 1
# Processed by: cddbd v1.5.2PL0 Copyright (c) Steve Scherf et al.
# Submitted via: CDex 1.51
#
DISCID=2c124616
DTITLE=Various Artist - ZM-Xmas-CD-3
DYEAR=1900
DGENRE=Blues
TTITLE0=Kylie Minogue - Santa Baby
TTITLE1=Jackson Five The - Santa Claus Is Coming To Town
TTITLE2=Cliff Richard - Saviour's Day
TTITLE3=Traditional - Silent Night
TTITLE4=Ronettes The - Sleigh Ride
TTITLE5=East 17 - Stay Another Day
TTITLE6=Elton John - Step Into Christmas
TTITLE7=Jona Lewie - Stop The Cavalry
TTITLE8=Queen - Thank God It's Christmas
TTITLE9=Shakin' Stevens - The Best Christmas Of Them All
TTITLE10=Nat King Cole - The Christmas Song
TTITLE11=Traditional - The First Noel
TTITLE12=Traditional - The Holly And The Ivy
TTITLE13=Traditional - The Twelve Days Of Christmas
TTITLE14=Aled Jones - Walking In The Air
TTITLE15=Traditional - We Three Kings
TTITLE16=Traditional - We Wish You A Merry Christmas
TTITLE17=Johnny Mathis - When A Child Is Born
TTITLE18=Traditional - While Shepherds Watched
TTITLE19=Bing Crosby - White Christmas
TTITLE20=Darlene Love - Winter Wonderland
TTITLE21=Paul McCartney - Wonderful Christmastime
EXTD=
EXTT0=
EXTT1=
EXTT2=
EXTT3=
EXTT4=
EXTT5=
EXTT6=
EXTT7=
EXTT8=
EXTT9=
EXTT10=
EXTT11=
EXTT12=
EXTT13=
EXTT14=
EXTT15=
EXTT16=
EXTT17=
EXTT18=
EXTT19=
EXTT20=
EXTT21=
PLAYORDER=
